<svg xmlns="http://www.w3.org/2000/svg" width="20" height="20" viewBox="0 0 20 20"><defs><style>.a{opacity:0.75;}.b{fill:#fff;}</style></defs><g class="a"><g transform="translate(0 0)"><g transform="translate(0 0)"><path class="b" d="M13.75,0H6.25A6.251,6.251,0,0,0,0,6.25v7.5A6.251,6.251,0,0,0,6.25,20h7.5A6.251,6.251,0,0,0,20,13.75V6.25A6.251,6.251,0,0,0,13.75,0Zm4.375,13.75a4.38,4.38,0,0,1-4.375,4.375H6.25A4.38,4.38,0,0,1,1.875,13.75V6.25A4.38,4.38,0,0,1,6.25,1.875h7.5A4.38,4.38,0,0,1,18.125,6.25Z" transform="translate(0 0)"/></g></g><g transform="translate(5.071 5.071)"><path class="b" d="M132.929,128a4.929,4.929,0,1,0,4.929,4.929A4.929,4.929,0,0,0,132.929,128Zm0,8.01a3.081,3.081,0,1,1,3.081-3.081A3.085,3.085,0,0,1,132.929,136.01Z" transform="translate(-128 -128)"/></g><g transform="translate(14.724 3.963)"><circle class="b" cx="0.657" cy="0.657" r="0.657"/></g></g></svg>