<svg xmlns="http://www.w3.org/2000/svg" width="20" height="20" viewBox="0 0 20 20"><defs><style>.a{opacity:0.75;}.b{fill:#fff;}</style></defs><g class="a" transform="translate(-0.003)"><path class="b" d="M18.9,1.1A3.611,3.611,0,0,0,16.253,0H3.753A3.613,3.613,0,0,0,1.1,1.1,3.613,3.613,0,0,0,0,3.75v12.5A3.613,3.613,0,0,0,1.1,18.9,3.612,3.612,0,0,0,3.753,20h12.5A3.757,3.757,0,0,0,20,16.25V3.75A3.613,3.613,0,0,0,18.9,1.1ZM6.1,16.745H3.089V7.708H6.1v9.037ZM5.823,6.035a1.713,1.713,0,0,1-1.237.449H4.573a1.655,1.655,0,0,1-1.2-.449,1.49,1.49,0,0,1-.462-1.113A1.465,1.465,0,0,1,3.382,3.8a1.734,1.734,0,0,1,1.23-.443A1.664,1.664,0,0,1,5.823,3.8a1.539,1.539,0,0,1,.469,1.12A1.481,1.481,0,0,1,5.823,6.035Zm11.094,10.71H13.909V11.914q0-2.044-1.51-2.044a1.473,1.473,0,0,0-.964.319,2,2,0,0,0-.586.775,2.148,2.148,0,0,0-.091.729v5.052H7.751q.039-8.177,0-9.037h3.008V8.984a3.021,3.021,0,0,1,2.7-1.484,3.26,3.26,0,0,1,2.513,1.029,4.324,4.324,0,0,1,.95,3.034v5.183h0Z" transform="translate(0 0)"/></g></svg>